# xmcd
#
# Track frame offsets:
#	150
#	24685
#	58410
#	80935
#	102555
#	125450
#	144142
#	165697
#	192995
#	218395
#
# Disc length: 3236 seconds
#
# Revision: 0
# Processed by: cddbd v1.5.2PL0 Copyright (c) Steve Scherf et al.
# Submitted via: EasyCDDAExtractor 16.0.9.1
#
DISCID=900ca20a
DTITLE=Hương Lan - TNCD126 - Huế and Em
DYEAR=1997
DGENRE=Country
TTITLE0=Hương Lan - Giận Mà Thương (Trần Hoàn)
TTITLE1=Hương Lan and Hoài Nam - Bâng Khuâng Đêm Hà Tĩnh (An Thuyên)
TTITLE2=Hương Lan - Đây Thôn Vỹ Dạ (Nhạc - Hoàng Thanh Tâm, Thơ: Hàn Mặc Tử)
TTITLE3=Hương Lan - Rất Huế (Võ Tá Hân)
TTITLE4=Hương Lan - Ngược Dòng Hương Giang (Đức Trịnh)
TTITLE5=Hương Lan and Hoài Nam - Gởi Huế (Huy Phương)
TTITLE6=Hương Lan - Neo Đậu Chân Quê (An Thuyên)
TTITLE7=Hương Lan - Ai Ra Xứ Huế (Duy Khánh)
TTITLE8=Hương Lan - Huế and Em (Nhật Ngân)
TTITLE9=Hương Lan - Bến Đợi (Thuận Yến)
EXTD=
EXTT0=
EXTT1=
EXTT2=
EXTT3=
EXTT4=
EXTT5=
EXTT6=
EXTT7=
EXTT8=
EXTT9=
PLAYORDER=
